<svg id="Layer_1" data-name="Layer 1" xmlns="http://www.w3.org/2000/svg" viewBox="0 0 39.78 35.05"><title>ic_heart</title><path d="M25.23,42.93a1.22,1.22,0,0,1-.66-.2c-2-1.24-19.35-12.52-19.35-24.12A10.64,10.64,0,0,1,15.73,7.87a11.09,11.09,0,0,1,9.65,6.3c1.6-3.3,4.62-6.26,9.16-6A10.88,10.88,0,0,1,45,18.84c.25,11.37-17.12,22.65-19.1,23.89A1.27,1.27,0,0,1,25.23,42.93ZM24.83,41Zm.8,0ZM15.73,9.87a8.63,8.63,0,0,0-8.51,8.74c0,10,15.26,20.37,18,22.18,6.88-4.42,18-13.73,17.77-21.9a8.9,8.9,0,0,0-8.56-8.76C29,9.86,27,15.39,26.59,16.5a1.24,1.24,0,0,1-1.17.86h0a1.25,1.25,0,0,1-1.18-.84C23.37,14.05,20.61,9.87,15.73,9.87Z" transform="translate(-5.22 -7.87)"/></svg>