<svg id="Layer_1" data-name="Layer 1" xmlns="http://www.w3.org/2000/svg" viewBox="0 0 245.82 168.79"><defs><style>.cls-1{fill:#1b1b37;}</style></defs><title>ic_logo</title><path class="cls-1" d="M70.08,28.13l5.85,2.93L86.12,35.4l9.36,3.26,12,4.1,9.7,3.17,8.1,2.59L133.42,51l6.94,2.25,1.77.58s.41.31,1.45,0l3.6-1.14,6.95-2.3,12.15-4,11-3.66,10.33-3.56,8.68-3.11,4.48-1.65L206,32.59a2.3,2.3,0,0,1,2.33.47,15.46,15.46,0,0,1,3.69,3.4,30.51,30.51,0,0,1,4.72,6.69,95.35,95.35,0,0,1,4.5,8.69,40.26,40.26,0,0,1,3.61,9.48c1.79,6.49,1.66,9.25,1.66,9.25s.08.71.67.8.77.21,1.15-.47a30.15,30.15,0,0,0,1.89-3.58,87.93,87.93,0,0,0,3.47-8.85s.24-.69,1.16-.21A26.13,26.13,0,0,1,240,61.59a33.1,33.1,0,0,1,4.59,4.17s1.76,1.68,2.6,2.73,1.26-.28,1.26-.28.29-1.16-1.44-6.9a21.84,21.84,0,0,0-5.64-9.23,50.94,50.94,0,0,0-9.53-8.2,126.25,126.25,0,0,0-11.68-7.36s-4.82-2.76-6.53-3.58S211,31.51,211,31.51s-.6-.36-.13-.56S218,28.3,218,28.3L143.2,2.91Z" transform="translate(-2.69 -2.91)"/><path class="cls-1" d="M96.65,44,142,59.18s.36.43,1.92,0,48.17-15.8,48.17-15.8.3-.14.33.28.81,9.16.81,9.16.78,7.69.88,8.23.18,1.07.18,1.07a3.2,3.2,0,0,1,.29,2.93,8.62,8.62,0,0,1-2.24,2.8s-5.7,5.82-21.72,13.65-20.78,8.85-20.78,8.85-4,2.35-11.27,0-17.34-7-17.34-7-22.5-10.6-26.62-16.81c0,0-.65-.82.23-4,0,0,.61-4.93.8-7.52S96.65,44,96.65,44Z" transform="translate(-2.69 -2.91)"/><path class="cls-1" d="M105,83.53c-4.45-5.73-9.42-7-9.42-7A75.4,75.4,0,0,0,80.12,73a110.73,110.73,0,0,0-14.07-1s-9.75.48-18.83,1.72a93.41,93.41,0,0,0-16,3.41,63.81,63.81,0,0,0-9.62,3.45,19.7,19.7,0,0,0-3.85,2.32,26.27,26.27,0,0,0-3.67,3.76S10.2,92,9,96.5s2.32,5.1,2.32,5.1l23-.89s1.72-.06,1.54-.86-1.3-.83-1.3-.83a47.47,47.47,0,0,1-8-.41s-2.49-1-.62-2.08,11.38-2.66,11.38-2.66.19-.06,3.9-.72,5.93-1,5.93-1,5.82-.77,6.86-1,.36.46.36.46l-1.69,2.21-2.78,3.68-4.22,5.64L35.32,117.09s-2.89,3.89-3.12,4.22a.55.55,0,0,1-.51.27c-2.65.43-5.19.64-5.19.64s-4.57-.19-7.41,2.14-5.49,7.48-5.49,7.48a8.09,8.09,0,0,0-.8,3.07c.06,1.28,1.61,1.86,1.61,1.86s3.5,1.51,4.06,1.72,0,.66,0,.66-4,5.37-7.46,10.5-5.61,9-5.61,9a41.3,41.3,0,0,0-2.6,5.5,5.41,5.41,0,0,0,0,2.43,2.64,2.64,0,0,0,1.45,1.32,5.2,5.2,0,0,0,3.33-.16,23.1,23.1,0,0,0,4.29-3.11,9.72,9.72,0,0,0,1.4-1.83,19.94,19.94,0,0,0,1.21-3.09A45,45,0,0,1,18,153.21l3.83-5.81s3.7-5.2,3.85-5.4.42,0,.42,0l2.55,1.24,8.1,4,13.5,6.55,10.93,5.49,10.65,5.59s8.46,4.69,11.16,5.93,2.7.88,2.7.88.63.13,1.42-.74,1.17-3.45,1.17-3.45a54.21,54.21,0,0,0,.16-8c-.23-4.5-.61-4.64-.61-4.64a5,5,0,0,0-.8-1.49,14.92,14.92,0,0,0-2.88-2.28,98.55,98.55,0,0,0-10.21-5.28s-4.42-2.35-12.95-6-19.32-7.72-19.32-7.72-7.86-2.87-9-3.19,0-.39,0-.39,20-1.37,31.24-3.2a176.49,176.49,0,0,0,21.14-4.9,35.4,35.4,0,0,0,14.33-8,26.16,26.16,0,0,0,7.75-13.9S109.44,89.25,105,83.53ZM98.76,98.3A7.63,7.63,0,0,1,97,101.78a18.64,18.64,0,0,1-4.54,3.65,47.85,47.85,0,0,1-8.52,4s-5.52,1.93-10.63,3.37-9.6,2.46-9.6,2.46l-6.33,1.4-5.07,1.12L46.59,119s-3.25.6-4.17.71-.35-.42-.35-.42l1.85-2.38,1.55-2L47,112.84s4.73-6.2,6-7.91,3.32-4.73,3.32-4.73a45.26,45.26,0,0,0,2.28-4.36,10.92,10.92,0,0,0,.69-3.46s-.07-1.2-.16-1.64.22-.51.22-.51c2.16-.27,7.6-.64,7.6-.64s8.75-.18,12.74,0a78.58,78.58,0,0,1,9.2,1.2,36.7,36.7,0,0,1,4.59,1.32c3.59,1.17,4.36,2.56,4.36,2.56A3.63,3.63,0,0,1,98.76,98.3Z" transform="translate(-2.69 -2.91)"/><path class="cls-1" d="M208.15,134.52c.52-.52,2.34-2.24,6.94-7.66s9.66-12.61,9.66-12.61a96.69,96.69,0,0,0,10.15-18.8c4.21-10.59,3.24-15.81,3.24-15.81s.29-3.72-1.74-4.2-5,1.64-5,1.64-5.75,3.72-13.24,13.68a113.65,113.65,0,0,0-11.55,18.85,122.33,122.33,0,0,0-6.81,15.71,72,72,0,0,0-3.52,15.15s0,.18-.45.55a64.43,64.43,0,0,1-5.91,4.41c-2.32,1.4-2.34,1.95-6.24,3.06,0,0-5.42,1.2-6.13-2.76a13.71,13.71,0,0,1,.56-7s1.73-2.8,4.76-6.88a32.11,32.11,0,0,0,3.83-6.11,4.55,4.55,0,0,0,0-3c-.6-1.65-2.57-5.63-2.57-5.63s-.14-.36.11-.46,3.82-1.33,4.11-2.22a3.18,3.18,0,0,0,0-2.15c-.22-.81-1.69-4.11-3.93-5.2s-9.67,1.35-9.67,1.35a45.92,45.92,0,0,0-10.39,4.51c-6.18,3.48-17.45,11.38-22.72,17.7,0,0-4.53,4.49-4.4,8.77a1.16,1.16,0,0,1-.47.62c-.41.32-7.32,6.41-12.76,9.43s-9.92,3.42-12.63,2.83-4.3-3.71-4.3-3.71a17.5,17.5,0,0,1-1-6.76s.66.16,12.32-5.67,15.91-12.86,15.91-12.86,3.81-5.79,2.27-9.95-6.56-4-6.56-4a25.14,25.14,0,0,0-7.39,1.29,40.4,40.4,0,0,0-6.75,3.1,67.7,67.7,0,0,0-15.78,14.18c-6.69,8.59-6.65,19.07-5.12,25a16.51,16.51,0,0,0,5.7,8.82s1.82,2,7.82,2.06,11.34-3.47,11.34-3.47,2.95-2,5.38-4,6.46-6.07,6.46-6.07,4.14-4.43,4.9-5.41c0,0,.35-.51.39.07s.38,2.7.38,2.7a31.94,31.94,0,0,0,1,3.35,42.07,42.07,0,0,0,2.09,4.46,21.31,21.31,0,0,0,4.35,5.31,3.79,3.79,0,0,0,4.32.44s2.09-.63,6.88-5.23,9.28-9.69,9.28-9.69,4.42-4.83,5.13-5.62-.17,1.29-.17,1.29a56.74,56.74,0,0,0-2.55,8.13,26.89,26.89,0,0,0-.9,8.69s.51,3.5,2.47,4.53a7.32,7.32,0,0,0,4.66.27s2.79-.53,7.93-4.42A97.12,97.12,0,0,0,192,149.8s3-3.06,4-4.17c0,0,.24-.3.24.08a30.73,30.73,0,0,0,1.4,8.83,20.34,20.34,0,0,0,3.52,6.35,6.43,6.43,0,0,0,3.92,2.33,15.42,15.42,0,0,0,4.47,0,23.82,23.82,0,0,0,6.29-3.19,41.14,41.14,0,0,0,6.59-5.78s3.27-3.52,6.55-7.57l2.44-3.15v-5.18s0-.18-.23.08-3,2.85-3,2.85-9.42,8.86-11.89,9.69a7.36,7.36,0,0,1-4.48.1,8.22,8.22,0,0,1-4.43-5.11c-1.38-4,0-10.48,0-10.48A4.6,4.6,0,0,1,208.15,134.52Zm2.5-12.23a19.67,19.67,0,0,1,.9-3.22,109.26,109.26,0,0,1,5.95-14.39A56.27,56.27,0,0,1,226,91.76s2.8-2.84,3.72-2,.47,3,.47,3-.53,4.2-6.56,14.77a87.71,87.71,0,0,1-13.56,17.82A17.68,17.68,0,0,1,210.65,122.29ZM107.22,135.42a5.5,5.5,0,0,1,.52-1.74,35.94,35.94,0,0,1,6-9.08,40,40,0,0,1,9.26-6.7s2.47-1.06,3.41-.45.36,2.64.36,2.64-1.33,4.86-8.16,10.42S107,137.07,107,137.07A12.06,12.06,0,0,1,107.22,135.42ZM171.07,131c-2.94,3.77-7.11,8.41-7.11,8.41s-3.33,3.43-6.68,6.18a28.55,28.55,0,0,1-7.3,4.56,3.33,3.33,0,0,1-2.3,0,4.93,4.93,0,0,1-1.55-2.51,11.43,11.43,0,0,1,1.14-7.8,21,21,0,0,1,5.85-6.43s1.88-1.93,10.15-6.59,16.9-8.31,16.9-8.31l-.24.56s-.91,1.29-2.07,2.9S174,127.24,171.07,131Z" transform="translate(-2.69 -2.91)"/></svg>