<svg id="Layer_1" data-name="Layer 1" xmlns="http://www.w3.org/2000/svg" viewBox="0 0 151 77.4"><defs><style>.cls-1{fill:none;stroke:#fff;stroke-linecap:round;stroke-linejoin:round;stroke-width:5px;}</style></defs><title>ic_system5</title><path class="cls-1" d="M7.5,59.1l4.79,2.4,8.34,3.55,7.66,2.67,9.84,3.35,7.93,2.6,6.64,2.12,6.63,2L65,79.68l1.45.47s.33.26,1.19,0,2.94-.93,2.94-.93l5.68-1.88,10-3.29,9-3,8.45-2.92,7.1-2.54,3.67-1.35,4.26-1.5a1.9,1.9,0,0,1,1.91.39,13,13,0,0,1,3,2.77,25.37,25.37,0,0,1,3.86,5.48,78.36,78.36,0,0,1,3.67,7.11,33,33,0,0,1,3,7.76c1.47,5.31,1.36,7.56,1.36,7.56s.07.59.55.67.63.17.94-.4a24.68,24.68,0,0,0,1.55-2.92,70.89,70.89,0,0,0,2.83-7.24s.21-.57,1-.18a21.78,21.78,0,0,1,4.28,2.73,27,27,0,0,1,3.76,3.41s1.43,1.38,2.12,2.23,1-.23,1-.23.23-.94-1.18-5.64a18,18,0,0,0-4.61-7.55A41.75,41.75,0,0,0,139.9,72a102.81,102.81,0,0,0-9.56-6s-4-2.26-5.34-2.93-2.2-1.17-2.2-1.17-.49-.3-.1-.46,5.81-2.17,5.81-2.17L67.34,38.47Z" transform="translate(-5 -35.97)"/><path class="cls-1" d="M29.25,72.05,66.37,84.51s.3.35,1.57,0,39.42-12.93,39.42-12.93.24-.11.27.23l.66,7.49s.64,6.3.72,6.74.15.88.15.88a2.58,2.58,0,0,1,.24,2.39,7,7,0,0,1-1.84,2.29s-4.66,4.77-17.77,11.17-17,7.25-17,7.25-3.29,1.91-9.22,0-14.19-5.75-14.19-5.75S31,95.59,27.6,90.51c0,0-.53-.66.19-3.31,0,0,.5-4,.65-6.16S29.25,72.05,29.25,72.05Z" transform="translate(-5 -35.97)"/></svg>